# xmcd
#
# Track frame offsets:
#	150
#	19867
#	38967
#	60683
#	80264
#	101384
#	116569
#	139100
#	155257
#	172612
#
# Disc length: 2488 seconds
#
# Revision: 1
# Processed by: cddbd v1.5.2PL0 Copyright (c) Steve Scherf et al.
# Submitted via: audiograbber 1.83.01
#
DISCID=7009b60a
DTITLE=Татьяна Шилова - Расстояние
DYEAR=2007
DGENRE=Vocal
TTITLE0=Ты - Свет
TTITLE1=Любовь
TTITLE2=Сон
TTITLE3=Что такое любовь
TTITLE4=Ветер
TTITLE5=Тайна
TTITLE6=Расстояние
TTITLE7=По дороге к небу
TTITLE8=Обними меня, Господь
TTITLE9=Царство Божие
EXTD=
EXTT0=
EXTT1=
EXTT2=
EXTT3=
EXTT4=
EXTT5=
EXTT6=
EXTT7=
EXTT8=
EXTT9=
PLAYORDER=
